<svg width="768" height="1133" viewBox="0 0 768 1133" fill="none" xmlns="http://www.w3.org/2000/svg">
<g clip-path="url(#clip0_240_4901)">
<g opacity="0.15">
<circle cx="20" cy="20" r="20" transform="matrix(-1 0 0 1 771 160)" fill="#A6E767"/>
<circle cx="17.5" cy="17.5" r="17.5" transform="matrix(-1 0 0 1 699 163)" fill="#A6E767"/>
<circle cx="16" cy="16" r="16" transform="matrix(-1 0 0 1 629 165)" fill="#A6E767"/>
<circle cx="12.5" cy="12.5" r="12.5" transform="matrix(-1 0 0 1 565 169)" fill="#A6E767"/>
<circle cx="11.5" cy="11.5" r="11.5" transform="matrix(-1 0 0 1 508 170)" fill="#A6E767"/>
<circle cx="10" cy="10" r="10" transform="matrix(-1 0 0 1 451 172)" fill="#A6E767"/>
<circle cx="7.5" cy="7.5" r="7.5" transform="matrix(-1 0 0 1 399 175)" fill="#A6E767"/>
</g>
<g opacity="0.15">
<circle cx="20" cy="20" r="20" transform="matrix(-1 0 0 1 771 231)" fill="#A6E767"/>
<circle cx="17.5" cy="17.5" r="17.5" transform="matrix(-1 0 0 1 699 234)" fill="#A6E767"/>
<circle cx="16" cy="16" r="16" transform="matrix(-1 0 0 1 629 236)" fill="#A6E767"/>
<circle cx="12.5" cy="12.5" r="12.5" transform="matrix(-1 0 0 1 565 240)" fill="#A6E767"/>
<circle cx="11.5" cy="11.5" r="11.5" transform="matrix(-1 0 0 1 508 241)" fill="#A6E767"/>
<circle cx="10" cy="10" r="10" transform="matrix(-1 0 0 1 451 243)" fill="#A6E767"/>
<circle cx="7.5" cy="7.5" r="7.5" transform="matrix(-1 0 0 1 399 246)" fill="#A6E767"/>
</g>
<g opacity="0.15">
<circle cx="20" cy="20" r="20" transform="matrix(-1 0 0 1 771 302)" fill="#A6E767"/>
<circle cx="17.5" cy="17.5" r="17.5" transform="matrix(-1 0 0 1 699 305)" fill="#A6E767"/>
<circle cx="16" cy="16" r="16" transform="matrix(-1 0 0 1 629 307)" fill="#A6E767"/>
<circle cx="12.5" cy="12.5" r="12.5" transform="matrix(-1 0 0 1 565 311)" fill="#A6E767"/>
<circle cx="11.5" cy="11.5" r="11.5" transform="matrix(-1 0 0 1 508 312)" fill="#A6E767"/>
<circle cx="10" cy="10" r="10" transform="matrix(-1 0 0 1 451 314)" fill="#A6E767"/>
<circle cx="7.5" cy="7.5" r="7.5" transform="matrix(-1 0 0 1 399 317)" fill="#A6E767"/>
</g>
<g opacity="0.15">
<circle cx="20" cy="20" r="20" transform="matrix(-1 0 0 1 771 18)" fill="#A6E767"/>
<circle cx="17.5" cy="17.5" r="17.5" transform="matrix(-1 0 0 1 699 21)" fill="#A6E767"/>
<circle cx="16" cy="16" r="16" transform="matrix(-1 0 0 1 629 23)" fill="#A6E767"/>
<circle cx="12.5" cy="12.5" r="12.5" transform="matrix(-1 0 0 1 565 27)" fill="#A6E767"/>
<circle cx="11.5" cy="11.5" r="11.5" transform="matrix(-1 0 0 1 508 28)" fill="#A6E767"/>
<circle cx="10" cy="10" r="10" transform="matrix(-1 0 0 1 451 30)" fill="#A6E767"/>
<circle cx="7.5" cy="7.5" r="7.5" transform="matrix(-1 0 0 1 399 33)" fill="#A6E767"/>
</g>
<g opacity="0.15">
<circle cx="20" cy="20" r="20" transform="matrix(-1 0 0 1 771 373)" fill="#A6E767"/>
<circle cx="17.5" cy="17.5" r="17.5" transform="matrix(-1 0 0 1 699 376)" fill="#A6E767"/>
<circle cx="16" cy="16" r="16" transform="matrix(-1 0 0 1 629 378)" fill="#A6E767"/>
<circle cx="12.5" cy="12.5" r="12.5" transform="matrix(-1 0 0 1 565 382)" fill="#A6E767"/>
<circle cx="11.5" cy="11.5" r="11.5" transform="matrix(-1 0 0 1 508 383)" fill="#A6E767"/>
<circle cx="10" cy="10" r="10" transform="matrix(-1 0 0 1 451 385)" fill="#A6E767"/>
<circle cx="7.5" cy="7.5" r="7.5" transform="matrix(-1 0 0 1 399 388)" fill="#A6E767"/>
</g>
<g opacity="0.15">
<circle cx="20" cy="20" r="20" transform="matrix(-1 0 0 1 771 444)" fill="#A6E767"/>
<circle cx="17.5" cy="17.5" r="17.5" transform="matrix(-1 0 0 1 699 447)" fill="#A6E767"/>
<circle cx="16" cy="16" r="16" transform="matrix(-1 0 0 1 629 449)" fill="#A6E767"/>
<circle cx="12.5" cy="12.5" r="12.5" transform="matrix(-1 0 0 1 565 453)" fill="#A6E767"/>
<circle cx="11.5" cy="11.5" r="11.5" transform="matrix(-1 0 0 1 508 454)" fill="#A6E767"/>
<circle cx="10" cy="10" r="10" transform="matrix(-1 0 0 1 451 456)" fill="#A6E767"/>
<circle cx="7.5" cy="7.5" r="7.5" transform="matrix(-1 0 0 1 399 459)" fill="#A6E767"/>
</g>
<g opacity="0.15">
<circle cx="20" cy="20" r="20" transform="matrix(-1 0 0 1 771 89)" fill="#A6E767"/>
<circle cx="17.5" cy="17.5" r="17.5" transform="matrix(-1 0 0 1 699 92)" fill="#A6E767"/>
<circle cx="16" cy="16" r="16" transform="matrix(-1 0 0 1 629 94)" fill="#A6E767"/>
<circle cx="12.5" cy="12.5" r="12.5" transform="matrix(-1 0 0 1 565 98)" fill="#A6E767"/>
<circle cx="11.5" cy="11.5" r="11.5" transform="matrix(-1 0 0 1 508 99)" fill="#A6E767"/>
<circle cx="10" cy="10" r="10" transform="matrix(-1 0 0 1 451 101)" fill="#A6E767"/>
<circle cx="7.5" cy="7.5" r="7.5" transform="matrix(-1 0 0 1 399 104)" fill="#A6E767"/>
</g>
<g opacity="0.15">
<circle cx="20" cy="20" r="20" transform="matrix(-1 0 0 1 771 515)" fill="#A6E767"/>
<circle cx="17.5" cy="17.5" r="17.5" transform="matrix(-1 0 0 1 699 518)" fill="#A6E767"/>
<circle cx="16" cy="16" r="16" transform="matrix(-1 0 0 1 629 520)" fill="#A6E767"/>
<circle cx="12.5" cy="12.5" r="12.5" transform="matrix(-1 0 0 1 565 524)" fill="#A6E767"/>
<circle cx="11.5" cy="11.5" r="11.5" transform="matrix(-1 0 0 1 508 525)" fill="#A6E767"/>
<circle cx="10" cy="10" r="10" transform="matrix(-1 0 0 1 451 527)" fill="#A6E767"/>
<circle cx="7.5" cy="7.5" r="7.5" transform="matrix(-1 0 0 1 399 530)" fill="#A6E767"/>
</g>
<g opacity="0.15">
<circle cx="17" cy="740" r="20" fill="#A6E767"/>
<circle cx="86.5" cy="740.5" r="17.5" fill="#A6E767"/>
<circle cx="155" cy="741" r="16" fill="#A6E767"/>
<circle cx="215.5" cy="741.5" r="12.5" fill="#A6E767"/>
<circle cx="271.5" cy="741.5" r="11.5" fill="#A6E767"/>
<circle cx="327" cy="742" r="10" fill="#A6E767"/>
<circle cx="376.5" cy="742.5" r="7.5" fill="#A6E767"/>
</g>
<g opacity="0.15">
<circle cx="17" cy="811" r="20" fill="#A6E767"/>
<circle cx="86.5" cy="811.5" r="17.5" fill="#A6E767"/>
<circle cx="155" cy="812" r="16" fill="#A6E767"/>
<circle cx="215.5" cy="812.5" r="12.5" fill="#A6E767"/>
<circle cx="271.5" cy="812.5" r="11.5" fill="#A6E767"/>
<circle cx="327" cy="813" r="10" fill="#A6E767"/>
<circle cx="376.5" cy="813.5" r="7.5" fill="#A6E767"/>
</g>
<g opacity="0.15">
<circle cx="17" cy="882" r="20" fill="#A6E767"/>
<circle cx="86.5" cy="882.5" r="17.5" fill="#A6E767"/>
<circle cx="155" cy="883" r="16" fill="#A6E767"/>
<circle cx="215.5" cy="883.5" r="12.5" fill="#A6E767"/>
<circle cx="271.5" cy="883.5" r="11.5" fill="#A6E767"/>
<circle cx="327" cy="884" r="10" fill="#A6E767"/>
<circle cx="376.5" cy="884.5" r="7.5" fill="#A6E767"/>
</g>
<g opacity="0.15">
<circle cx="17" cy="598" r="20" fill="#A6E767"/>
<circle cx="86.5" cy="598.5" r="17.5" fill="#A6E767"/>
<circle cx="155" cy="599" r="16" fill="#A6E767"/>
<circle cx="215.5" cy="599.5" r="12.5" fill="#A6E767"/>
<circle cx="271.5" cy="599.5" r="11.5" fill="#A6E767"/>
<circle cx="327" cy="600" r="10" fill="#A6E767"/>
<circle cx="376.5" cy="600.5" r="7.5" fill="#A6E767"/>
</g>
<g opacity="0.15">
<circle cx="17" cy="953" r="20" fill="#A6E767"/>
<circle cx="86.5" cy="953.5" r="17.5" fill="#A6E767"/>
<circle cx="155" cy="954" r="16" fill="#A6E767"/>
<circle cx="215.5" cy="954.5" r="12.5" fill="#A6E767"/>
<circle cx="271.5" cy="954.5" r="11.5" fill="#A6E767"/>
<circle cx="327" cy="955" r="10" fill="#A6E767"/>
<circle cx="376.5" cy="955.5" r="7.5" fill="#A6E767"/>
</g>
<g opacity="0.15">
<circle cx="17" cy="1024" r="20" fill="#A6E767"/>
<circle cx="86.5" cy="1024.5" r="17.5" fill="#A6E767"/>
<circle cx="155" cy="1025" r="16" fill="#A6E767"/>
<circle cx="215.5" cy="1025.5" r="12.5" fill="#A6E767"/>
<circle cx="271.5" cy="1025.5" r="11.5" fill="#A6E767"/>
<circle cx="327" cy="1026" r="10" fill="#A6E767"/>
<circle cx="376.5" cy="1026.5" r="7.5" fill="#A6E767"/>
</g>
<g opacity="0.15">
<circle cx="17" cy="669" r="20" fill="#A6E767"/>
<circle cx="86.5" cy="669.5" r="17.5" fill="#A6E767"/>
<circle cx="155" cy="670" r="16" fill="#A6E767"/>
<circle cx="215.5" cy="670.5" r="12.5" fill="#A6E767"/>
<circle cx="271.5" cy="670.5" r="11.5" fill="#A6E767"/>
<circle cx="327" cy="671" r="10" fill="#A6E767"/>
<circle cx="376.5" cy="671.5" r="7.5" fill="#A6E767"/>
</g>
<g opacity="0.15">
<circle cx="17" cy="1095" r="20" fill="#A6E767"/>
<circle cx="86.5" cy="1095.5" r="17.5" fill="#A6E767"/>
<circle cx="155" cy="1096" r="16" fill="#A6E767"/>
<circle cx="215.5" cy="1096.5" r="12.5" fill="#A6E767"/>
<circle cx="271.5" cy="1096.5" r="11.5" fill="#A6E767"/>
<circle cx="327" cy="1097" r="10" fill="#A6E767"/>
<circle cx="376.5" cy="1097.5" r="7.5" fill="#A6E767"/>
</g>
</g>
<defs>
<clipPath id="clip0_240_4901">
<rect width="768" height="1133" fill="white"/>
</clipPath>
</defs>
</svg>
