<svg width="1705" height="959" viewBox="0 0 1705 959" fill="none" xmlns="http://www.w3.org/2000/svg">
<g clip-path="url(#clip0_211_3112)">
<g opacity="0.15">
<circle cx="11.5" cy="848.5" r="31.5" fill="#A6E767"/>
<circle cx="104" cy="849" r="29" fill="#A6E767"/>
<circle cx="193" cy="849" r="28" fill="#A6E767"/>
<circle cx="278" cy="849" r="25" fill="#A6E767"/>
<circle cx="358.5" cy="848.5" r="22.5" fill="#A6E767"/>
<circle cx="434.5" cy="848.5" r="21.5" fill="#A6E767"/>
<circle cx="508" cy="849" r="20" fill="#A6E767"/>
<circle cx="577.5" cy="849.5" r="17.5" fill="#A6E767"/>
<circle cx="646" cy="850" r="16" fill="#A6E767"/>
<circle cx="706.5" cy="850.5" r="12.5" fill="#A6E767"/>
<circle cx="762.5" cy="850.5" r="11.5" fill="#A6E767"/>
<circle cx="818" cy="851" r="10" fill="#A6E767"/>
<circle cx="867.5" cy="851.5" r="7.5" fill="#A6E767"/>
</g>
<g opacity="0.15">
<circle cx="11.5" cy="532.5" r="31.5" fill="#A6E767"/>
<circle cx="104" cy="533" r="29" fill="#A6E767"/>
<circle cx="193" cy="533" r="28" fill="#A6E767"/>
<circle cx="278" cy="533" r="25" fill="#A6E767"/>
<circle cx="358.5" cy="532.5" r="22.5" fill="#A6E767"/>
<circle cx="434.5" cy="532.5" r="21.5" fill="#A6E767"/>
<circle cx="508" cy="533" r="20" fill="#A6E767"/>
<circle cx="577.5" cy="533.5" r="17.5" fill="#A6E767"/>
<circle cx="646" cy="534" r="16" fill="#A6E767"/>
<circle cx="706.5" cy="534.5" r="12.5" fill="#A6E767"/>
<circle cx="762.5" cy="534.5" r="11.5" fill="#A6E767"/>
<circle cx="818" cy="535" r="10" fill="#A6E767"/>
<circle cx="867.5" cy="535.5" r="7.5" fill="#A6E767"/>
</g>
<g opacity="0.15">
<circle cx="11.5" cy="927.5" r="31.5" fill="#A6E767"/>
<circle cx="104" cy="928" r="29" fill="#A6E767"/>
<circle cx="193" cy="928" r="28" fill="#A6E767"/>
<circle cx="278" cy="928" r="25" fill="#A6E767"/>
<circle cx="358.5" cy="927.5" r="22.5" fill="#A6E767"/>
<circle cx="434.5" cy="927.5" r="21.5" fill="#A6E767"/>
<circle cx="508" cy="928" r="20" fill="#A6E767"/>
<circle cx="577.5" cy="928.5" r="17.5" fill="#A6E767"/>
<circle cx="646" cy="929" r="16" fill="#A6E767"/>
<circle cx="706.5" cy="929.5" r="12.5" fill="#A6E767"/>
<circle cx="762.5" cy="929.5" r="11.5" fill="#A6E767"/>
<circle cx="818" cy="930" r="10" fill="#A6E767"/>
<circle cx="867.5" cy="930.5" r="7.5" fill="#A6E767"/>
</g>
<g opacity="0.15">
<circle cx="11.5" cy="611.5" r="31.5" fill="#A6E767"/>
<circle cx="104" cy="612" r="29" fill="#A6E767"/>
<circle cx="193" cy="612" r="28" fill="#A6E767"/>
<circle cx="278" cy="612" r="25" fill="#A6E767"/>
<circle cx="358.5" cy="611.5" r="22.5" fill="#A6E767"/>
<circle cx="434.5" cy="611.5" r="21.5" fill="#A6E767"/>
<circle cx="508" cy="612" r="20" fill="#A6E767"/>
<circle cx="577.5" cy="612.5" r="17.5" fill="#A6E767"/>
<circle cx="646" cy="613" r="16" fill="#A6E767"/>
<circle cx="706.5" cy="613.5" r="12.5" fill="#A6E767"/>
<circle cx="762.5" cy="613.5" r="11.5" fill="#A6E767"/>
<circle cx="818" cy="614" r="10" fill="#A6E767"/>
<circle cx="867.5" cy="614.5" r="7.5" fill="#A6E767"/>
</g>
<g opacity="0.15">
<circle cx="11.5" cy="690.5" r="31.5" fill="#A6E767"/>
<circle cx="104" cy="691" r="29" fill="#A6E767"/>
<circle cx="193" cy="691" r="28" fill="#A6E767"/>
<circle cx="278" cy="691" r="25" fill="#A6E767"/>
<circle cx="358.5" cy="690.5" r="22.5" fill="#A6E767"/>
<circle cx="434.5" cy="690.5" r="21.5" fill="#A6E767"/>
<circle cx="508" cy="691" r="20" fill="#A6E767"/>
<circle cx="577.5" cy="691.5" r="17.5" fill="#A6E767"/>
<circle cx="646" cy="692" r="16" fill="#A6E767"/>
<circle cx="706.5" cy="692.5" r="12.5" fill="#A6E767"/>
<circle cx="762.5" cy="692.5" r="11.5" fill="#A6E767"/>
<circle cx="818" cy="693" r="10" fill="#A6E767"/>
<circle cx="867.5" cy="693.5" r="7.5" fill="#A6E767"/>
</g>
<g opacity="0.15">
<circle cx="11.5" cy="769.5" r="31.5" fill="#A6E767"/>
<circle cx="104" cy="770" r="29" fill="#A6E767"/>
<circle cx="193" cy="770" r="28" fill="#A6E767"/>
<circle cx="278" cy="770" r="25" fill="#A6E767"/>
<circle cx="358.5" cy="769.5" r="22.5" fill="#A6E767"/>
<circle cx="434.5" cy="769.5" r="21.5" fill="#A6E767"/>
<circle cx="508" cy="770" r="20" fill="#A6E767"/>
<circle cx="577.5" cy="770.5" r="17.5" fill="#A6E767"/>
<circle cx="646" cy="771" r="16" fill="#A6E767"/>
<circle cx="706.5" cy="771.5" r="12.5" fill="#A6E767"/>
<circle cx="762.5" cy="771.5" r="11.5" fill="#A6E767"/>
<circle cx="818" cy="772" r="10" fill="#A6E767"/>
<circle cx="867.5" cy="772.5" r="7.5" fill="#A6E767"/>
</g>
<g opacity="0.15">
<circle cx="31.5" cy="31.5" r="31.5" transform="matrix(-1 0 0 1 1723 179)" fill="#A6E767"/>
<circle cx="29" cy="29" r="29" transform="matrix(-1 0 0 1 1628 182)" fill="#A6E767"/>
<circle cx="28" cy="28" r="28" transform="matrix(-1 0 0 1 1538 183)" fill="#A6E767"/>
<circle cx="25" cy="25" r="25" transform="matrix(-1 0 0 1 1450 186)" fill="#A6E767"/>
<circle cx="22.5" cy="22.5" r="22.5" transform="matrix(-1 0 0 1 1367 188)" fill="#A6E767"/>
<circle cx="21.5" cy="21.5" r="21.5" transform="matrix(-1 0 0 1 1290 189)" fill="#A6E767"/>
<circle cx="20" cy="20" r="20" transform="matrix(-1 0 0 1 1215 191)" fill="#A6E767"/>
<circle cx="17.5" cy="17.5" r="17.5" transform="matrix(-1 0 0 1 1143 194)" fill="#A6E767"/>
<circle cx="16" cy="16" r="16" transform="matrix(-1 0 0 1 1073 196)" fill="#A6E767"/>
<circle cx="12.5" cy="12.5" r="12.5" transform="matrix(-1 0 0 1 1009 200)" fill="#A6E767"/>
<circle cx="11.5" cy="11.5" r="11.5" transform="matrix(-1 0 0 1 952 201)" fill="#A6E767"/>
<circle cx="10" cy="10" r="10" transform="matrix(-1 0 0 1 895 203)" fill="#A6E767"/>
<circle cx="7.5" cy="7.5" r="7.5" transform="matrix(-1 0 0 1 843 206)" fill="#A6E767"/>
</g>
<g opacity="0.15">
<circle cx="31.5" cy="31.5" r="31.5" transform="matrix(-1 0 0 1 1723 258)" fill="#A6E767"/>
<circle cx="29" cy="29" r="29" transform="matrix(-1 0 0 1 1628 261)" fill="#A6E767"/>
<circle cx="28" cy="28" r="28" transform="matrix(-1 0 0 1 1538 262)" fill="#A6E767"/>
<circle cx="25" cy="25" r="25" transform="matrix(-1 0 0 1 1450 265)" fill="#A6E767"/>
<circle cx="22.5" cy="22.5" r="22.5" transform="matrix(-1 0 0 1 1367 267)" fill="#A6E767"/>
<circle cx="21.5" cy="21.5" r="21.5" transform="matrix(-1 0 0 1 1290 268)" fill="#A6E767"/>
<circle cx="20" cy="20" r="20" transform="matrix(-1 0 0 1 1215 270)" fill="#A6E767"/>
<circle cx="17.5" cy="17.5" r="17.5" transform="matrix(-1 0 0 1 1143 273)" fill="#A6E767"/>
<circle cx="16" cy="16" r="16" transform="matrix(-1 0 0 1 1073 275)" fill="#A6E767"/>
<circle cx="12.5" cy="12.5" r="12.5" transform="matrix(-1 0 0 1 1009 279)" fill="#A6E767"/>
<circle cx="11.5" cy="11.5" r="11.5" transform="matrix(-1 0 0 1 952 280)" fill="#A6E767"/>
<circle cx="10" cy="10" r="10" transform="matrix(-1 0 0 1 895 282)" fill="#A6E767"/>
<circle cx="7.5" cy="7.5" r="7.5" transform="matrix(-1 0 0 1 843 285)" fill="#A6E767"/>
</g>
<g opacity="0.15">
<circle cx="31.5" cy="31.5" r="31.5" transform="matrix(-1 0 0 1 1723 337)" fill="#A6E767"/>
<circle cx="29" cy="29" r="29" transform="matrix(-1 0 0 1 1628 340)" fill="#A6E767"/>
<circle cx="28" cy="28" r="28" transform="matrix(-1 0 0 1 1538 341)" fill="#A6E767"/>
<circle cx="25" cy="25" r="25" transform="matrix(-1 0 0 1 1450 344)" fill="#A6E767"/>
<circle cx="22.5" cy="22.5" r="22.5" transform="matrix(-1 0 0 1 1367 346)" fill="#A6E767"/>
<circle cx="21.5" cy="21.5" r="21.5" transform="matrix(-1 0 0 1 1290 347)" fill="#A6E767"/>
<circle cx="20" cy="20" r="20" transform="matrix(-1 0 0 1 1215 349)" fill="#A6E767"/>
<circle cx="17.5" cy="17.5" r="17.5" transform="matrix(-1 0 0 1 1143 352)" fill="#A6E767"/>
<circle cx="16" cy="16" r="16" transform="matrix(-1 0 0 1 1073 354)" fill="#A6E767"/>
<circle cx="12.5" cy="12.5" r="12.5" transform="matrix(-1 0 0 1 1009 358)" fill="#A6E767"/>
<circle cx="11.5" cy="11.5" r="11.5" transform="matrix(-1 0 0 1 952 359)" fill="#A6E767"/>
<circle cx="10" cy="10" r="10" transform="matrix(-1 0 0 1 895 361)" fill="#A6E767"/>
<circle cx="7.5" cy="7.5" r="7.5" transform="matrix(-1 0 0 1 843 364)" fill="#A6E767"/>
</g>
<g opacity="0.15">
<circle cx="31.5" cy="31.5" r="31.5" transform="matrix(-1 0 0 1 1723 21)" fill="#A6E767"/>
<circle cx="29" cy="29" r="29" transform="matrix(-1 0 0 1 1628 24)" fill="#A6E767"/>
<circle cx="28" cy="28" r="28" transform="matrix(-1 0 0 1 1538 25)" fill="#A6E767"/>
<circle cx="25" cy="25" r="25" transform="matrix(-1 0 0 1 1450 28)" fill="#A6E767"/>
<circle cx="22.5" cy="22.5" r="22.5" transform="matrix(-1 0 0 1 1367 30)" fill="#A6E767"/>
<circle cx="21.5" cy="21.5" r="21.5" transform="matrix(-1 0 0 1 1290 31)" fill="#A6E767"/>
<circle cx="20" cy="20" r="20" transform="matrix(-1 0 0 1 1215 33)" fill="#A6E767"/>
<circle cx="17.5" cy="17.5" r="17.5" transform="matrix(-1 0 0 1 1143 36)" fill="#A6E767"/>
<circle cx="16" cy="16" r="16" transform="matrix(-1 0 0 1 1073 38)" fill="#A6E767"/>
<circle cx="12.5" cy="12.5" r="12.5" transform="matrix(-1 0 0 1 1009 42)" fill="#A6E767"/>
<circle cx="11.5" cy="11.5" r="11.5" transform="matrix(-1 0 0 1 952 43)" fill="#A6E767"/>
<circle cx="10" cy="10" r="10" transform="matrix(-1 0 0 1 895 45)" fill="#A6E767"/>
<circle cx="7.5" cy="7.5" r="7.5" transform="matrix(-1 0 0 1 843 48)" fill="#A6E767"/>
</g>
<g opacity="0.15">
<circle cx="31.5" cy="31.5" r="31.5" transform="matrix(-1 0 0 1 1723 416)" fill="#A6E767"/>
<circle cx="29" cy="29" r="29" transform="matrix(-1 0 0 1 1628 419)" fill="#A6E767"/>
<circle cx="28" cy="28" r="28" transform="matrix(-1 0 0 1 1538 420)" fill="#A6E767"/>
<circle cx="25" cy="25" r="25" transform="matrix(-1 0 0 1 1450 423)" fill="#A6E767"/>
<circle cx="22.5" cy="22.5" r="22.5" transform="matrix(-1 0 0 1 1367 425)" fill="#A6E767"/>
<circle cx="21.5" cy="21.5" r="21.5" transform="matrix(-1 0 0 1 1290 426)" fill="#A6E767"/>
<circle cx="20" cy="20" r="20" transform="matrix(-1 0 0 1 1215 428)" fill="#A6E767"/>
<circle cx="17.5" cy="17.5" r="17.5" transform="matrix(-1 0 0 1 1143 431)" fill="#A6E767"/>
<circle cx="16" cy="16" r="16" transform="matrix(-1 0 0 1 1073 433)" fill="#A6E767"/>
<circle cx="12.5" cy="12.5" r="12.5" transform="matrix(-1 0 0 1 1009 437)" fill="#A6E767"/>
<circle cx="11.5" cy="11.5" r="11.5" transform="matrix(-1 0 0 1 952 438)" fill="#A6E767"/>
<circle cx="10" cy="10" r="10" transform="matrix(-1 0 0 1 895 440)" fill="#A6E767"/>
<circle cx="7.5" cy="7.5" r="7.5" transform="matrix(-1 0 0 1 843 443)" fill="#A6E767"/>
</g>
<g opacity="0.15">
<circle cx="31.5" cy="31.5" r="31.5" transform="matrix(-1 0 0 1 1723 100)" fill="#A6E767"/>
<circle cx="29" cy="29" r="29" transform="matrix(-1 0 0 1 1628 103)" fill="#A6E767"/>
<circle cx="28" cy="28" r="28" transform="matrix(-1 0 0 1 1538 104)" fill="#A6E767"/>
<circle cx="25" cy="25" r="25" transform="matrix(-1 0 0 1 1450 107)" fill="#A6E767"/>
<circle cx="22.5" cy="22.5" r="22.5" transform="matrix(-1 0 0 1 1367 109)" fill="#A6E767"/>
<circle cx="21.5" cy="21.5" r="21.5" transform="matrix(-1 0 0 1 1290 110)" fill="#A6E767"/>
<circle cx="20" cy="20" r="20" transform="matrix(-1 0 0 1 1215 112)" fill="#A6E767"/>
<circle cx="17.5" cy="17.5" r="17.5" transform="matrix(-1 0 0 1 1143 115)" fill="#A6E767"/>
<circle cx="16" cy="16" r="16" transform="matrix(-1 0 0 1 1073 117)" fill="#A6E767"/>
<circle cx="12.5" cy="12.5" r="12.5" transform="matrix(-1 0 0 1 1009 121)" fill="#A6E767"/>
<circle cx="11.5" cy="11.5" r="11.5" transform="matrix(-1 0 0 1 952 122)" fill="#A6E767"/>
<circle cx="10" cy="10" r="10" transform="matrix(-1 0 0 1 895 124)" fill="#A6E767"/>
<circle cx="7.5" cy="7.5" r="7.5" transform="matrix(-1 0 0 1 843 127)" fill="#A6E767"/>
</g>
</g>
<defs>
<clipPath id="clip0_211_3112">
<rect width="1705" height="959" fill="white"/>
</clipPath>
</defs>
</svg>
