<svg width="768" height="1133" viewBox="0 0 768 1133" fill="none" xmlns="http://www.w3.org/2000/svg">
<g clip-path="url(#clip0_240_4783)">
<circle cx="392.807" cy="91.8058" r="70.2374" transform="rotate(17.7247 392.807 91.8058)" stroke="#CF950E" stroke-opacity="0.15" stroke-width="2"/>
<circle cx="392.806" cy="91.8062" r="63.8803" transform="rotate(17.7247 392.806 91.8062)" stroke="#FFC130" stroke-opacity="0.25" stroke-width="2"/>
<circle cx="392.806" cy="91.8058" r="34.1513" transform="rotate(17.7247 392.806 91.8058)" stroke="#FFC130" stroke-opacity="0.25" stroke-width="2"/>
<circle cx="392.746" cy="91.6884" r="29.0095" transform="rotate(17.7247 392.746 91.6884)" stroke="#FFC130" stroke-opacity="0.25" stroke-width="2"/>
<circle cx="392.806" cy="91.8059" r="46.3046" transform="rotate(17.7247 392.806 91.8059)" stroke="#FFC130" stroke-opacity="0.25" stroke-width="2"/>
<circle cx="392.807" cy="91.806" r="132.5" transform="rotate(17.7247 392.807 91.806)" stroke="#CF950E" stroke-opacity="0.15" stroke-width="2"/>
<circle cx="480.5" cy="1041.5" r="65.5" stroke="#FFC130" stroke-opacity="0.25" stroke-width="2"/>
<circle cx="480.5" cy="1041.5" r="54.5" stroke="#FFC130" stroke-opacity="0.25" stroke-width="2"/>
<circle cx="481" cy="1042" r="36" stroke="#FFC130" stroke-opacity="0.25" stroke-width="2"/>
<circle cx="480.5" cy="1041.5" r="9.5" stroke="#FFC130" stroke-opacity="0.25" stroke-width="2"/>
<circle cx="480.5" cy="1041.5" r="6.5" stroke="#FFC130" stroke-opacity="0.25" stroke-width="2"/>
<circle cx="480.5" cy="1041.5" r="167.5" stroke="#CF950E" stroke-opacity="0.15" stroke-width="4"/>
<circle cx="481" cy="1042" r="156" stroke="#CF950E" stroke-opacity="0.15" stroke-width="4"/>
<circle cx="6.49989" cy="529.5" r="66.7311" stroke="#FFC130" stroke-opacity="0.25" stroke-width="4"/>
<circle cx="6.4999" cy="529.5" r="32.2907" stroke="#FFC130" stroke-opacity="0.25" stroke-width="4"/>
<circle cx="6.49989" cy="529.5" r="76.015" stroke="#CF950E" stroke-opacity="0.15" stroke-width="4"/>
<circle cx="6.49988" cy="529.5" r="21.7098" stroke="#FFC130" stroke-opacity="0.25" stroke-width="3"/>
<circle cx="6.50008" cy="529.5" r="7.03523" stroke="#FFC130" stroke-opacity="0.25" stroke-width="3"/>
<circle cx="6.5" cy="529.5" r="142.5" stroke="#CF950E" stroke-opacity="0.15" stroke-width="4"/>
<circle cx="109.301" cy="689.302" r="32.2328" transform="rotate(-164.825 109.301 689.302)" stroke="#FFC130" stroke-opacity="0.25" stroke-width="4"/>
<circle cx="109.301" cy="689.301" r="15.0791" transform="rotate(-164.825 109.301 689.301)" stroke="#FFC130" stroke-opacity="0.25" stroke-width="4"/>
<circle cx="109.302" cy="689.302" r="36.8569" transform="rotate(-164.825 109.302 689.302)" stroke="#CF950E" stroke-opacity="0.15" stroke-width="4"/>
<circle cx="109.301" cy="689.302" r="10.0601" transform="rotate(-164.825 109.301 689.302)" stroke="#FFC130" stroke-opacity="0.25" stroke-width="3"/>
<circle cx="109.301" cy="689.301" r="2.75114" transform="rotate(-164.825 109.301 689.301)" stroke="#FFC130" stroke-opacity="0.25" stroke-width="3"/>
<circle cx="109.302" cy="689.301" r="69.971" transform="rotate(-164.825 109.302 689.301)" stroke="#CF950E" stroke-opacity="0.15" stroke-width="4"/>
<circle cx="666.3" cy="898.3" r="24.8004" stroke="#FFC130" stroke-opacity="0.25" stroke-width="3"/>
<circle cx="462.7" cy="348.3" r="24.8004" transform="rotate(180 462.7 348.3)" stroke="#FFC130" stroke-opacity="0.25" stroke-width="3"/>
<circle cx="69.6996" cy="1041.3" r="24.8004" transform="rotate(180 69.6996 1041.3)" stroke="#FFC130" stroke-opacity="0.25" stroke-width="3"/>
<circle cx="430.5" cy="340.101" r="15" transform="rotate(180 430.5 340.101)" stroke="#FFC130" stroke-opacity="0.25" stroke-width="3"/>
<circle cx="749.5" cy="262.5" r="15" stroke="#FFC130" stroke-opacity="0.25" stroke-width="3"/>
<circle cx="776.3" cy="272.3" r="24.8004" stroke="#FFC130" stroke-opacity="0.25" stroke-width="3"/>
<circle cx="723.3" cy="654.3" r="24.8004" stroke="#FFC130" stroke-opacity="0.25" stroke-width="3"/>
<circle cx="752.3" cy="676.3" r="24.8004" stroke="#FFC130" stroke-opacity="0.25" stroke-width="3"/>
<circle cx="724.001" cy="1004" r="60.4328" stroke="#CF950E" stroke-opacity="0.15" stroke-width="4"/>
<circle cx="724.001" cy="1004" r="54.8613" stroke="#FFC130" stroke-opacity="0.25" stroke-width="4"/>
<circle cx="724.002" cy="1004" r="29.3067" stroke="#FFC130" stroke-opacity="0.25" stroke-width="3"/>
<circle cx="723.918" cy="1003.92" r="24.8004" stroke="#FFC130" stroke-opacity="0.25" stroke-width="3"/>
<circle cx="724" cy="1004" r="39.958" stroke="#FFC130" stroke-opacity="0.25" stroke-width="3"/>
<circle cx="724.001" cy="1004" r="115" stroke="#CF950E" stroke-opacity="0.15" stroke-width="4"/>
<circle cx="916.5" cy="321.5" r="176.5" stroke="#CF950E" stroke-opacity="0.15" stroke-width="4"/>
</g>
<defs>
<clipPath id="clip0_240_4783">
<rect width="768" height="1133" fill="white"/>
</clipPath>
</defs>
</svg>
