<svg width="1705" height="959" viewBox="0 0 1705 959" fill="none" xmlns="http://www.w3.org/2000/svg">
<g clip-path="url(#clip0_219_3114)">
<circle cx="1002.81" cy="-75.1942" r="70.2374" transform="rotate(17.7247 1002.81 -75.1942)" stroke="#CF950E" stroke-opacity="0.15" stroke-width="2"/>
<circle cx="1002.81" cy="-75.1938" r="63.8803" transform="rotate(17.7247 1002.81 -75.1938)" stroke="#FFC130" stroke-opacity="0.25" stroke-width="2"/>
<circle cx="1002.81" cy="-75.194" r="132.5" transform="rotate(17.7247 1002.81 -75.194)" stroke="#CF950E" stroke-opacity="0.15" stroke-width="2"/>
<circle cx="1166.5" cy="871.5" r="65.5" stroke="#FFC130" stroke-opacity="0.25" stroke-width="2"/>
<circle cx="1166.5" cy="871.5" r="54.5" stroke="#FFC130" stroke-opacity="0.25" stroke-width="2"/>
<circle cx="1167" cy="872" r="36" stroke="#FFC130" stroke-opacity="0.25" stroke-width="2"/>
<circle cx="1166.5" cy="871.5" r="9.5" stroke="#FFC130" stroke-opacity="0.25" stroke-width="2"/>
<circle cx="1166.5" cy="871.5" r="6.5" stroke="#FFC130" stroke-opacity="0.25" stroke-width="2"/>
<circle cx="1166.5" cy="871.5" r="167.5" stroke="#CF950E" stroke-opacity="0.15" stroke-width="4"/>
<circle cx="1167" cy="872" r="156" stroke="#CF950E" stroke-opacity="0.15" stroke-width="4"/>
<circle cx="192.501" cy="81.4999" r="66.7311" stroke="#FFC130" stroke-opacity="0.25" stroke-width="4"/>
<circle cx="192.501" cy="81.4999" r="32.2907" stroke="#FFC130" stroke-opacity="0.25" stroke-width="4"/>
<circle cx="192.501" cy="81.4999" r="76.015" stroke="#CF950E" stroke-opacity="0.15" stroke-width="4"/>
<circle cx="192.501" cy="81.4999" r="21.7098" stroke="#FFC130" stroke-opacity="0.25" stroke-width="3"/>
<circle cx="192.501" cy="81.5001" r="7.03523" stroke="#FFC130" stroke-opacity="0.25" stroke-width="3"/>
<circle cx="192.501" cy="81.5" r="142.5" stroke="#CF950E" stroke-opacity="0.15" stroke-width="4"/>
<circle cx="328.301" cy="461.302" r="32.2328" transform="rotate(-164.825 328.301 461.302)" stroke="#FFC130" stroke-opacity="0.25" stroke-width="4"/>
<circle cx="328.301" cy="461.301" r="15.0791" transform="rotate(-164.825 328.301 461.301)" stroke="#FFC130" stroke-opacity="0.25" stroke-width="4"/>
<circle cx="328.302" cy="461.302" r="36.8569" transform="rotate(-164.825 328.302 461.302)" stroke="#CF950E" stroke-opacity="0.15" stroke-width="4"/>
<circle cx="328.301" cy="461.302" r="10.0601" transform="rotate(-164.825 328.301 461.302)" stroke="#FFC130" stroke-opacity="0.25" stroke-width="3"/>
<circle cx="328.301" cy="461.301" r="2.75114" transform="rotate(-164.825 328.301 461.301)" stroke="#FFC130" stroke-opacity="0.25" stroke-width="3"/>
<circle cx="328.301" cy="461.301" r="69.971" transform="rotate(-164.825 328.301 461.301)" stroke="#CF950E" stroke-opacity="0.15" stroke-width="4"/>
<circle cx="205.501" cy="859.5" r="90.5819" stroke="#CF950E" stroke-opacity="0.15" stroke-width="4"/>
<circle cx="205.501" cy="859.5" r="82.32" stroke="#FFC130" stroke-opacity="0.25" stroke-width="4"/>
<circle cx="205.501" cy="859.5" r="44.1835" stroke="#FFC130" stroke-opacity="0.25" stroke-width="3"/>
<circle cx="205.379" cy="859.378" r="37.501" stroke="#FFC130" stroke-opacity="0.25" stroke-width="3"/>
<circle cx="205.501" cy="859.5" r="59.9783" stroke="#FFC130" stroke-opacity="0.25" stroke-width="3"/>
<circle cx="205.501" cy="859.5" r="171.5" stroke="#CF950E" stroke-opacity="0.15" stroke-width="4"/>
<circle cx="194.301" cy="239.3" r="24.8004" stroke="#FFC130" stroke-opacity="0.25" stroke-width="3"/>
<circle cx="226.301" cy="212.3" r="24.8004" stroke="#FFC130" stroke-opacity="0.25" stroke-width="3"/>
<circle cx="1296.3" cy="760.3" r="24.8004" stroke="#FFC130" stroke-opacity="0.25" stroke-width="3"/>
<circle cx="472.301" cy="808.3" r="24.8004" stroke="#FFC130" stroke-opacity="0.25" stroke-width="3"/>
<circle cx="1072.7" cy="181.3" r="24.8004" transform="rotate(180 1072.7 181.3)" stroke="#FFC130" stroke-opacity="0.25" stroke-width="3"/>
<circle cx="504.501" cy="816.5" r="15" stroke="#FFC130" stroke-opacity="0.25" stroke-width="3"/>
<circle cx="1040.5" cy="173.101" r="15" transform="rotate(180 1040.5 173.101)" stroke="#FFC130" stroke-opacity="0.25" stroke-width="3"/>
<circle cx="1359.5" cy="95.5" r="15" stroke="#FFC130" stroke-opacity="0.25" stroke-width="3"/>
<circle cx="1386.3" cy="105.3" r="24.8004" stroke="#FFC130" stroke-opacity="0.25" stroke-width="3"/>
<circle cx="1333.3" cy="487.3" r="24.8004" stroke="#FFC130" stroke-opacity="0.25" stroke-width="3"/>
<circle cx="1362.3" cy="509.3" r="24.8004" stroke="#FFC130" stroke-opacity="0.25" stroke-width="3"/>
<circle cx="1410" cy="892" r="60.4328" stroke="#CF950E" stroke-opacity="0.15" stroke-width="4"/>
<circle cx="1410" cy="892" r="54.8613" stroke="#FFC130" stroke-opacity="0.25" stroke-width="4"/>
<circle cx="1410" cy="892" r="29.3067" stroke="#FFC130" stroke-opacity="0.25" stroke-width="3"/>
<circle cx="1409.92" cy="891.918" r="24.8004" stroke="#FFC130" stroke-opacity="0.25" stroke-width="3"/>
<circle cx="1410" cy="892" r="39.958" stroke="#FFC130" stroke-opacity="0.25" stroke-width="3"/>
<circle cx="1410" cy="892" r="115" stroke="#CF950E" stroke-opacity="0.15" stroke-width="4"/>
<circle cx="1526.5" cy="154.5" r="93.25" stroke="#CF950E" stroke-opacity="0.15" stroke-width="4"/>
<circle cx="1526.5" cy="154.5" r="84.75" stroke="#FFC130" stroke-opacity="0.25" stroke-width="4"/>
<circle cx="1526.5" cy="154.5" r="45.5" stroke="#FFC130" stroke-opacity="0.25" stroke-width="3"/>
<circle cx="1526.38" cy="154.375" r="38.625" stroke="#FFC130" stroke-opacity="0.25" stroke-width="3"/>
<circle cx="1526.5" cy="154.5" r="61.75" stroke="#FFC130" stroke-opacity="0.25" stroke-width="3"/>
<circle cx="1526.5" cy="154.5" r="176.5" stroke="#CF950E" stroke-opacity="0.15" stroke-width="4"/>
</g>
<defs>
<clipPath id="clip0_219_3114">
<rect width="1705" height="959" fill="white"/>
</clipPath>
</defs>
</svg>
