<svg width="480" height="926" viewBox="0 0 480 926" fill="none" xmlns="http://www.w3.org/2000/svg">
<g clip-path="url(#clip0_240_4859)">
<circle cx="118.5" cy="756.5" r="65.5" stroke="#FFC130" stroke-opacity="0.25" stroke-width="2"/>
<circle cx="118.5" cy="756.5" r="54.5" stroke="#FFC130" stroke-opacity="0.25" stroke-width="2"/>
<circle cx="119" cy="757" r="36" stroke="#FFC130" stroke-opacity="0.25" stroke-width="2"/>
<circle cx="118.5" cy="756.5" r="9.5" stroke="#FFC130" stroke-opacity="0.25" stroke-width="2"/>
<circle cx="118.5" cy="756.5" r="6.5" stroke="#FFC130" stroke-opacity="0.25" stroke-width="2"/>
<circle cx="118.5" cy="756.5" r="167.5" stroke="#CF950E" stroke-opacity="0.15" stroke-width="4"/>
<circle cx="119" cy="757" r="156" stroke="#CF950E" stroke-opacity="0.15" stroke-width="4"/>
<circle cx="442" cy="632" r="60.4328" stroke="#CF950E" stroke-opacity="0.15" stroke-width="4"/>
<circle cx="442" cy="632" r="54.8613" stroke="#FFC130" stroke-opacity="0.25" stroke-width="4"/>
<circle cx="442.001" cy="632" r="29.3067" stroke="#FFC130" stroke-opacity="0.25" stroke-width="3"/>
<circle cx="441.917" cy="631.918" r="24.8004" stroke="#FFC130" stroke-opacity="0.25" stroke-width="3"/>
<circle cx="441.999" cy="632" r="39.958" stroke="#FFC130" stroke-opacity="0.25" stroke-width="3"/>
<circle cx="442" cy="632" r="115" stroke="#CF950E" stroke-opacity="0.15" stroke-width="4"/>
<circle cx="49.3011" cy="110.302" r="32.2328" transform="rotate(-164.825 49.3011 110.302)" stroke="#FFC130" stroke-opacity="0.25" stroke-width="4"/>
<circle cx="49.3013" cy="110.301" r="15.0791" transform="rotate(-164.825 49.3013 110.301)" stroke="#FFC130" stroke-opacity="0.25" stroke-width="4"/>
<circle cx="49.3017" cy="110.302" r="36.8569" transform="rotate(-164.825 49.3017 110.302)" stroke="#CF950E" stroke-opacity="0.15" stroke-width="4"/>
<circle cx="49.3013" cy="110.302" r="10.0601" transform="rotate(-164.825 49.3013 110.302)" stroke="#FFC130" stroke-opacity="0.25" stroke-width="3"/>
<circle cx="49.3015" cy="110.301" r="2.75114" transform="rotate(-164.825 49.3015 110.301)" stroke="#FFC130" stroke-opacity="0.25" stroke-width="3"/>
<circle cx="49.3014" cy="110.301" r="69.971" transform="rotate(-164.825 49.3014 110.301)" stroke="#CF950E" stroke-opacity="0.15" stroke-width="4"/>
<circle cx="327.3" cy="766.3" r="24.8004" stroke="#FFC130" stroke-opacity="0.25" stroke-width="3"/>
<circle cx="71.5" cy="179.101" r="15" transform="rotate(180 71.5 179.101)" stroke="#FFC130" stroke-opacity="0.25" stroke-width="3"/>
<circle cx="390.5" cy="101.5" r="15" stroke="#FFC130" stroke-opacity="0.25" stroke-width="3"/>
<circle cx="417.3" cy="111.3" r="24.8004" stroke="#FFC130" stroke-opacity="0.25" stroke-width="3"/>
<circle cx="393.3" cy="515.3" r="24.8004" stroke="#FFC130" stroke-opacity="0.25" stroke-width="3"/>
</g>
<defs>
<clipPath id="clip0_240_4859">
<rect width="480" height="926" fill="white"/>
</clipPath>
</defs>
</svg>
