<svg width="1705" height="959" viewBox="0 0 1705 959" fill="none" xmlns="http://www.w3.org/2000/svg">
<g clip-path="url(#clip0_219_3775)">
<g opacity="0.2" clip-path="url(#clip1_219_3775)">
<g opacity="0.6">
<rect x="1398" y="763" width="154" height="154" rx="20" fill="#BAF1FE"/>
<rect x="1600" y="763" width="154" height="154" rx="20" fill="#BAF1FE" fill-opacity="0.8"/>
</g>
<g opacity="0.4">
<rect x="1398" y="561" width="154" height="154" rx="20" fill="#BAF1FE"/>
<rect x="1600" y="561" width="154" height="154" rx="20" fill="#BAF1FE" fill-opacity="0.8"/>
</g>
<rect width="154" height="154" rx="20" transform="matrix(-1 0 0 1 1754 359)" fill="#BAF1FE" fill-opacity="0.6"/>
<rect width="154" height="154" rx="20" transform="matrix(-1 0 0 1 1552 359)" fill="#BAF1FE" fill-opacity="0.4"/>
<g opacity="0.6">
<rect width="154" height="154" rx="20" transform="matrix(-1 0 0 1 1754 157)" fill="#BAF1FE" fill-opacity="0.6"/>
<rect width="154" height="154" rx="20" transform="matrix(-1 0 0 1 1552 157)" fill="#BAF1FE" fill-opacity="0.4"/>
</g>
<g opacity="0.4">
<rect width="154" height="154" rx="20" transform="matrix(-1 0 0 1 1754 -45)" fill="#BAF1FE" fill-opacity="0.6"/>
<rect width="154" height="154" rx="20" transform="matrix(-1 0 0 1 1552 -45)" fill="#BAF1FE" fill-opacity="0.4"/>
</g>
</g>
<g opacity="0.2" clip-path="url(#clip2_219_3775)">
<g opacity="0.6">
<rect x="16" y="762" width="154" height="154" rx="20" fill="#7BE2FF"/>
<rect x="218" y="762" width="154" height="154" rx="20" fill="#7BE2FF" fill-opacity="0.8"/>
<rect x="420" y="762" width="154" height="154" rx="20" fill="#7BE2FF" fill-opacity="0.6"/>
<rect x="622" y="762" width="154" height="154" rx="20" fill="#7BE2FF" fill-opacity="0.4"/>
</g>
<g opacity="0.4">
<rect x="16" y="560" width="154" height="154" rx="20" fill="#7BE2FF"/>
<rect x="218" y="560" width="154" height="154" rx="20" fill="#7BE2FF" fill-opacity="0.8"/>
<rect x="420" y="560" width="154" height="154" rx="20" fill="#7BE2FF" fill-opacity="0.6"/>
<rect x="622" y="560" width="154" height="154" rx="20" fill="#7BE2FF" fill-opacity="0.4"/>
</g>
<rect width="154" height="154" rx="20" transform="matrix(-1 0 0 1 776 358)" fill="#7BE2FF"/>
<rect width="154" height="154" rx="20" transform="matrix(-1 0 0 1 574 358)" fill="#7BE2FF" fill-opacity="0.8"/>
<rect width="154" height="154" rx="20" transform="matrix(-1 0 0 1 372 358)" fill="#7BE2FF" fill-opacity="0.6"/>
<rect width="154" height="154" rx="20" transform="matrix(-1 0 0 1 170 358)" fill="#7BE2FF" fill-opacity="0.4"/>
<g opacity="0.6">
<rect width="154" height="154" rx="20" transform="matrix(-1 0 0 1 776 156)" fill="#7BE2FF"/>
<rect width="154" height="154" rx="20" transform="matrix(-1 0 0 1 574 156)" fill="#7BE2FF" fill-opacity="0.8"/>
<rect width="154" height="154" rx="20" transform="matrix(-1 0 0 1 372 156)" fill="#7BE2FF" fill-opacity="0.6"/>
<rect width="154" height="154" rx="20" transform="matrix(-1 0 0 1 170 156)" fill="#7BE2FF" fill-opacity="0.4"/>
</g>
<g opacity="0.4">
<rect width="154" height="154" rx="20" transform="matrix(-1 0 0 1 776 -46)" fill="#7BE2FF"/>
<rect width="154" height="154" rx="20" transform="matrix(-1 0 0 1 574 -46)" fill="#7BE2FF" fill-opacity="0.8"/>
<rect width="154" height="154" rx="20" transform="matrix(-1 0 0 1 372 -46)" fill="#7BE2FF" fill-opacity="0.6"/>
<rect width="154" height="154" rx="20" transform="matrix(-1 0 0 1 170 -46)" fill="#7BE2FF" fill-opacity="0.4"/>
</g>
<rect width="154" height="154" rx="20" transform="matrix(1 0 0 -1 824 108)" fill="#7BE2FF"/>
<rect width="154" height="154" rx="20" transform="matrix(1 0 0 -1 1026 108)" fill="#7BE2FF" fill-opacity="0.8"/>
<rect width="154" height="154" rx="20" transform="matrix(1 0 0 -1 1228 108)" fill="#7BE2FF" fill-opacity="0.6"/>
<g opacity="0.6">
<rect width="154" height="154" rx="20" transform="matrix(1 0 0 -1 824 310)" fill="#7BE2FF"/>
<rect width="154" height="154" rx="20" transform="matrix(1 0 0 -1 1026 310)" fill="#7BE2FF" fill-opacity="0.8"/>
<rect width="154" height="154" rx="20" transform="matrix(1 0 0 -1 1228 310)" fill="#7BE2FF" fill-opacity="0.6"/>
</g>
<g opacity="0.4">
<rect width="154" height="154" rx="20" transform="matrix(1 0 0 -1 824 512)" fill="#7BE2FF"/>
<rect width="154" height="154" rx="20" transform="matrix(1 0 0 -1 1026 512)" fill="#7BE2FF" fill-opacity="0.8"/>
<rect width="154" height="154" rx="20" transform="matrix(1 0 0 -1 1228 512)" fill="#7BE2FF" fill-opacity="0.6"/>
</g>
<rect x="1382" y="714" width="154" height="154" rx="20" transform="rotate(180 1382 714)" fill="#7BE2FF" fill-opacity="0.8"/>
<rect x="1180" y="714" width="154" height="154" rx="20" transform="rotate(180 1180 714)" fill="#7BE2FF" fill-opacity="0.6"/>
<rect x="978" y="714" width="154" height="154" rx="20" transform="rotate(180 978 714)" fill="#7BE2FF" fill-opacity="0.4"/>
<g opacity="0.6">
<rect x="1382" y="916" width="154" height="154" rx="20" transform="rotate(180 1382 916)" fill="#7BE2FF" fill-opacity="0.8"/>
<rect x="1180" y="916" width="154" height="154" rx="20" transform="rotate(180 1180 916)" fill="#7BE2FF" fill-opacity="0.6"/>
<rect x="978" y="916" width="154" height="154" rx="20" transform="rotate(180 978 916)" fill="#7BE2FF" fill-opacity="0.4"/>
</g>
</g>
</g>
<defs>
<clipPath id="clip0_219_3775">
<rect width="1705" height="959" fill="white"/>
</clipPath>
<clipPath id="clip1_219_3775">
<rect width="1366" height="1164" fill="white" transform="translate(1398 -45)"/>
</clipPath>
<clipPath id="clip2_219_3775">
<rect width="1366" height="1164" fill="white" transform="translate(16 -46)"/>
</clipPath>
</defs>
</svg>
