<svg width="768" height="1133" viewBox="0 0 768 1133" fill="none" xmlns="http://www.w3.org/2000/svg">
<g clip-path="url(#clip0_240_5808)">
<g opacity="0.2">
<g opacity="0.4">
<rect x="736" y="430" width="143" height="77" rx="20" transform="rotate(180 736 430)" fill="#7BE2FF"/>
<rect x="549" y="430" width="143" height="77" rx="20" transform="rotate(180 549 430)" fill="#7BE2FF" fill-opacity="0.8"/>
<rect x="362" y="430" width="143" height="77" rx="20" transform="rotate(180 362 430)" fill="#7BE2FF" fill-opacity="0.6"/>
<rect x="175" y="430" width="143" height="77" rx="20" transform="rotate(180 175 430)" fill="#7BE2FF" fill-opacity="0.4"/>
</g>
<g opacity="0.8">
<rect x="736" y="216" width="143" height="77" rx="20" transform="rotate(180 736 216)" fill="#7BE2FF"/>
<rect x="549" y="216" width="143" height="77" rx="20" transform="rotate(180 549 216)" fill="#7BE2FF" fill-opacity="0.8"/>
<rect x="362" y="216" width="143" height="77" rx="20" transform="rotate(180 362 216)" fill="#7BE2FF" fill-opacity="0.6"/>
<rect x="175" y="216" width="143" height="77" rx="20" transform="rotate(180 175 216)" fill="#7BE2FF" fill-opacity="0.4"/>
</g>
<g opacity="0.6">
<rect x="736" y="323" width="143" height="77" rx="20" transform="rotate(180 736 323)" fill="#7BE2FF"/>
<rect x="549" y="323" width="143" height="77" rx="20" transform="rotate(180 549 323)" fill="#7BE2FF" fill-opacity="0.8"/>
<rect x="362" y="323" width="143" height="77" rx="20" transform="rotate(180 362 323)" fill="#7BE2FF" fill-opacity="0.6"/>
<rect x="175" y="323" width="143" height="77" rx="20" transform="rotate(180 175 323)" fill="#7BE2FF" fill-opacity="0.4"/>
</g>
<rect x="736" y="109" width="143" height="77" rx="20" transform="rotate(180 736 109)" fill="#7BE2FF"/>
<rect x="549" y="109" width="143" height="77" rx="20" transform="rotate(180 549 109)" fill="#7BE2FF" fill-opacity="0.8"/>
<rect x="362" y="109" width="143" height="77" rx="20" transform="rotate(180 362 109)" fill="#7BE2FF" fill-opacity="0.6"/>
<rect x="175" y="109" width="143" height="77" rx="20" transform="rotate(180 175 109)" fill="#7BE2FF" fill-opacity="0.4"/>
</g>
<g opacity="0.2">
<g opacity="0.4">
<rect x="32" y="460" width="143" height="77" rx="20" fill="#7BE2FF"/>
<rect x="219" y="460" width="143" height="77" rx="20" fill="#7BE2FF" fill-opacity="0.8"/>
<rect x="406" y="460" width="143" height="77" rx="20" fill="#7BE2FF" fill-opacity="0.6"/>
<rect x="593" y="460" width="143" height="77" rx="20" fill="#7BE2FF" fill-opacity="0.4"/>
</g>
<g opacity="0.8">
<rect x="32" y="674" width="143" height="77" rx="20" fill="#7BE2FF"/>
<rect x="219" y="674" width="143" height="77" rx="20" fill="#7BE2FF" fill-opacity="0.8"/>
<rect x="406" y="674" width="143" height="77" rx="20" fill="#7BE2FF" fill-opacity="0.6"/>
<rect x="593" y="674" width="143" height="77" rx="20" fill="#7BE2FF" fill-opacity="0.4"/>
</g>
<g opacity="0.6">
<rect x="32" y="567" width="143" height="77" rx="20" fill="#7BE2FF"/>
<rect x="219" y="567" width="143" height="77" rx="20" fill="#7BE2FF" fill-opacity="0.8"/>
<rect x="406" y="567" width="143" height="77" rx="20" fill="#7BE2FF" fill-opacity="0.6"/>
<rect x="593" y="567" width="143" height="77" rx="20" fill="#7BE2FF" fill-opacity="0.4"/>
</g>
<rect x="32" y="781" width="143" height="77" rx="20" fill="#7BE2FF"/>
<rect x="219" y="781" width="143" height="77" rx="20" fill="#7BE2FF" fill-opacity="0.8"/>
<rect x="406" y="781" width="143" height="77" rx="20" fill="#7BE2FF" fill-opacity="0.6"/>
<rect x="593" y="781" width="143" height="77" rx="20" fill="#7BE2FF" fill-opacity="0.4"/>
</g>
<g opacity="0.2">
<g opacity="0.4">
<rect x="32" y="888" width="143" height="77" rx="20" fill="#7BE2FF"/>
<rect x="219" y="888" width="143" height="77" rx="20" fill="#7BE2FF" fill-opacity="0.8"/>
<rect x="406" y="888" width="143" height="77" rx="20" fill="#7BE2FF" fill-opacity="0.6"/>
<rect x="593" y="888" width="143" height="77" rx="20" fill="#7BE2FF" fill-opacity="0.4"/>
</g>
<g opacity="0.8">
<rect x="32" y="1102" width="143" height="77" rx="20" fill="#7BE2FF"/>
<rect x="219" y="1102" width="143" height="77" rx="20" fill="#7BE2FF" fill-opacity="0.8"/>
<rect x="406" y="1102" width="143" height="77" rx="20" fill="#7BE2FF" fill-opacity="0.6"/>
<rect x="593" y="1102" width="143" height="77" rx="20" fill="#7BE2FF" fill-opacity="0.4"/>
</g>
<g opacity="0.6">
<rect x="32" y="995" width="143" height="77" rx="20" fill="#7BE2FF"/>
<rect x="219" y="995" width="143" height="77" rx="20" fill="#7BE2FF" fill-opacity="0.8"/>
<rect x="406" y="995" width="143" height="77" rx="20" fill="#7BE2FF" fill-opacity="0.6"/>
<rect x="593" y="995" width="143" height="77" rx="20" fill="#7BE2FF" fill-opacity="0.4"/>
</g>
</g>
</g>
<defs>
<clipPath id="clip0_240_5808">
<rect width="768" height="1133" fill="white"/>
</clipPath>
</defs>
</svg>
