<svg width="768" height="1133" viewBox="0 0 768 1133" fill="none" xmlns="http://www.w3.org/2000/svg">
<g clip-path="url(#clip0_235_4257)">
<g opacity="0.1">
<circle cx="741.5" cy="332.5" r="598" stroke="#8167E7" stroke-width="3"/>
<circle cx="741.5" cy="332.5" r="590" stroke="#8167E7" stroke-width="3"/>
<circle cx="741.5" cy="332.5" r="581" stroke="#8167E7" stroke-width="3"/>
<circle cx="741.5" cy="332.5" r="573" stroke="#8167E7" stroke-width="3"/>
<circle cx="741.5" cy="332.5" r="565" stroke="#8167E7" stroke-width="3"/>
<circle cx="741.5" cy="332.5" r="557" stroke="#8167E7" stroke-width="3"/>
<circle cx="741.5" cy="332.5" r="549" stroke="#8167E7" stroke-width="3"/>
<circle cx="741.5" cy="332.5" r="541" stroke="#8167E7" stroke-width="3"/>
<circle cx="741.5" cy="332.5" r="532" stroke="#8167E7" stroke-width="3"/>
<circle cx="741.5" cy="332.5" r="524" stroke="#8167E7" stroke-width="3"/>
<circle cx="741.5" cy="332.5" r="516" stroke="#8167E7" stroke-width="3"/>
<circle cx="741.5" cy="332.5" r="508" stroke="#8167E7" stroke-width="3"/>
<circle cx="741.5" cy="332.5" r="500" stroke="#8167E7" stroke-width="3"/>
<circle cx="741.5" cy="332.5" r="492" stroke="#8167E7" stroke-width="3"/>
<circle cx="741.5" cy="332.5" r="484" stroke="#8167E7" stroke-width="3"/>
<circle cx="741.5" cy="332.5" r="475" stroke="#8167E7" stroke-width="3"/>
<circle cx="741.5" cy="332.5" r="467" stroke="#8167E7" stroke-width="3"/>
<circle cx="741.5" cy="332.5" r="459" stroke="#8167E7" stroke-width="3"/>
<circle cx="741.5" cy="332.5" r="451" stroke="#8167E7" stroke-width="3"/>
<circle cx="741.5" cy="332.5" r="443" stroke="#8167E7" stroke-width="3"/>
<circle cx="741.5" cy="332.5" r="435" stroke="#8167E7" stroke-width="3"/>
<circle cx="741.5" cy="332.5" r="426" stroke="#8167E7" stroke-width="3"/>
<circle cx="741.5" cy="332.5" r="418" stroke="#8167E7" stroke-width="3"/>
<circle cx="741.5" cy="332.5" r="410" stroke="#8167E7" stroke-width="3"/>
<circle cx="741.5" cy="332.5" r="402" stroke="#8167E7" stroke-width="3"/>
<circle cx="741.5" cy="332.5" r="394" stroke="#8167E7" stroke-width="3"/>
<circle cx="741.5" cy="332.5" r="386" stroke="#8167E7" stroke-width="3"/>
<circle cx="741.5" cy="332.5" r="378" stroke="#8167E7" stroke-width="3"/>
<circle cx="741.5" cy="332.5" r="369" stroke="#8167E7" stroke-width="3"/>
<circle cx="741.5" cy="332.5" r="361" stroke="#8167E7" stroke-width="3"/>
<circle cx="741.5" cy="332.5" r="353" stroke="#8167E7" stroke-width="3"/>
<circle cx="741.5" cy="332.5" r="345" stroke="#8167E7" stroke-width="3"/>
<circle cx="741.5" cy="332.5" r="337" stroke="#8167E7" stroke-width="3"/>
<circle cx="741.5" cy="332.5" r="329" stroke="#8167E7" stroke-width="3"/>
<circle cx="741.5" cy="332.5" r="320" stroke="#8167E7" stroke-width="3"/>
<circle cx="741.5" cy="332.5" r="312" stroke="#8167E7" stroke-width="3"/>
<circle cx="741.5" cy="332.5" r="304" stroke="#8167E7" stroke-width="3"/>
<circle cx="741.5" cy="332.5" r="296" stroke="#8167E7" stroke-width="3"/>
<circle cx="741.5" cy="332.5" r="288" stroke="#8167E7" stroke-width="3"/>
<circle cx="741.5" cy="332.5" r="280" stroke="#8167E7" stroke-width="3"/>
<circle cx="741.5" cy="332.5" r="272" stroke="#8167E7" stroke-width="3"/>
<circle cx="741.5" cy="332.5" r="263" stroke="#8167E7" stroke-width="3"/>
<circle cx="741.5" cy="332.5" r="255" stroke="#8167E7" stroke-width="3"/>
<circle cx="741.5" cy="332.5" r="247" stroke="#8167E7" stroke-width="3"/>
<circle cx="741.5" cy="332.5" r="239" stroke="#8167E7" stroke-width="3"/>
<circle cx="741.5" cy="332.5" r="231" stroke="#8167E7" stroke-width="3"/>
<circle cx="741.5" cy="332.5" r="223" stroke="#8167E7" stroke-width="3"/>
<circle cx="741.5" cy="332.5" r="215" stroke="#8167E7" stroke-width="3"/>
<circle cx="741.5" cy="332.5" r="206" stroke="#8167E7" stroke-width="3"/>
<circle cx="741.5" cy="332.5" r="198" stroke="#8167E7" stroke-width="3"/>
<circle cx="741.5" cy="332.5" r="190" stroke="#8167E7" stroke-width="3"/>
<circle cx="741.5" cy="332.5" r="182" stroke="#8167E7" stroke-width="3"/>
<circle cx="741.5" cy="332.5" r="174" stroke="#8167E7" stroke-width="3"/>
<circle cx="741.5" cy="332.5" r="166" stroke="#8167E7" stroke-width="3"/>
<circle cx="741.5" cy="332.5" r="157" stroke="#8167E7" stroke-width="3"/>
<circle cx="741.5" cy="332.5" r="149" stroke="#8167E7" stroke-width="3"/>
<circle cx="741.5" cy="332.5" r="141" stroke="#8167E7" stroke-width="3"/>
<circle cx="741.5" cy="332.5" r="133" stroke="#8167E7" stroke-width="3"/>
<circle cx="741.5" cy="332.5" r="125" stroke="#8167E7" stroke-width="3"/>
<circle cx="741.5" cy="332.5" r="117" stroke="#8167E7" stroke-width="3"/>
<circle cx="741.5" cy="332.5" r="109" stroke="#8167E7" stroke-width="3"/>
<circle cx="741.5" cy="332.5" r="100" stroke="#8167E7" stroke-width="3"/>
<circle cx="741.5" cy="332.5" r="92" stroke="#8167E7" stroke-width="3"/>
<circle cx="741.5" cy="332.5" r="84" stroke="#8167E7" stroke-width="3"/>
<circle cx="741.5" cy="332.5" r="76" stroke="#8167E7" stroke-width="3"/>
<circle cx="741.5" cy="332.5" r="68" stroke="#8167E7" stroke-width="3"/>
<circle cx="741.5" cy="332.5" r="60" stroke="#8167E7" stroke-width="3"/>
<circle cx="741.5" cy="332.5" r="51" stroke="#8167E7" stroke-width="3"/>
<circle cx="741.5" cy="332.5" r="43" stroke="#8167E7" stroke-width="3"/>
<circle cx="741.5" cy="332.5" r="35" stroke="#8167E7" stroke-width="3"/>
<circle cx="741.5" cy="332.5" r="27" stroke="#8167E7" stroke-width="3"/>
<circle cx="741.5" cy="332.5" r="19" stroke="#8167E7" stroke-width="3"/>
<circle cx="741.5" cy="332.5" r="11" stroke="#8167E7" stroke-width="3"/>
<circle cx="741.5" cy="332.5" r="3" stroke="#8167E7" stroke-width="3"/>
</g>
</g>
<defs>
<clipPath id="clip0_235_4257">
<rect width="768" height="1133" fill="white"/>
</clipPath>
</defs>
</svg>
