<svg width="480" height="926" viewBox="0 0 480 926" fill="none" xmlns="http://www.w3.org/2000/svg">
<g clip-path="url(#clip0_240_4621)">
<g opacity="0.1">
<circle cx="362.5" cy="321.5" r="320" stroke="#8167E7" stroke-width="3"/>
<circle cx="362.5" cy="321.5" r="312" stroke="#8167E7" stroke-width="3"/>
<circle cx="362.5" cy="321.5" r="304" stroke="#8167E7" stroke-width="3"/>
<circle cx="362.5" cy="321.5" r="296" stroke="#8167E7" stroke-width="3"/>
<circle cx="362.5" cy="321.5" r="288" stroke="#8167E7" stroke-width="3"/>
<circle cx="362.5" cy="321.5" r="280" stroke="#8167E7" stroke-width="3"/>
<circle cx="362.5" cy="321.5" r="272" stroke="#8167E7" stroke-width="3"/>
<circle cx="362.5" cy="321.5" r="263" stroke="#8167E7" stroke-width="3"/>
<circle cx="362.5" cy="321.5" r="255" stroke="#8167E7" stroke-width="3"/>
<circle cx="362.5" cy="321.5" r="247" stroke="#8167E7" stroke-width="3"/>
<circle cx="362.5" cy="321.5" r="239" stroke="#8167E7" stroke-width="3"/>
<circle cx="362.5" cy="321.5" r="231" stroke="#8167E7" stroke-width="3"/>
<circle cx="362.5" cy="321.5" r="223" stroke="#8167E7" stroke-width="3"/>
<circle cx="362.5" cy="321.5" r="215" stroke="#8167E7" stroke-width="3"/>
<circle cx="362.5" cy="321.5" r="206" stroke="#8167E7" stroke-width="3"/>
<circle cx="362.5" cy="321.5" r="198" stroke="#8167E7" stroke-width="3"/>
<circle cx="362.5" cy="321.5" r="190" stroke="#8167E7" stroke-width="3"/>
<circle cx="362.5" cy="321.5" r="182" stroke="#8167E7" stroke-width="3"/>
<circle cx="362.5" cy="321.5" r="174" stroke="#8167E7" stroke-width="3"/>
<circle cx="362.5" cy="321.5" r="166" stroke="#8167E7" stroke-width="3"/>
<circle cx="362.5" cy="321.5" r="157" stroke="#8167E7" stroke-width="3"/>
<circle cx="362.5" cy="321.5" r="149" stroke="#8167E7" stroke-width="3"/>
<circle cx="362.5" cy="321.5" r="141" stroke="#8167E7" stroke-width="3"/>
<circle cx="362.5" cy="321.5" r="133" stroke="#8167E7" stroke-width="3"/>
<circle cx="362.5" cy="321.5" r="125" stroke="#8167E7" stroke-width="3"/>
<circle cx="362.5" cy="321.5" r="117" stroke="#8167E7" stroke-width="3"/>
<circle cx="362.5" cy="321.5" r="109" stroke="#8167E7" stroke-width="3"/>
<circle cx="362.5" cy="321.5" r="100" stroke="#8167E7" stroke-width="3"/>
<circle cx="362.5" cy="321.5" r="92" stroke="#8167E7" stroke-width="3"/>
<circle cx="362.5" cy="321.5" r="84" stroke="#8167E7" stroke-width="3"/>
<circle cx="362.5" cy="321.5" r="76" stroke="#8167E7" stroke-width="3"/>
<circle cx="362.5" cy="321.5" r="68" stroke="#8167E7" stroke-width="3"/>
<circle cx="362.5" cy="321.5" r="60" stroke="#8167E7" stroke-width="3"/>
<circle cx="362.5" cy="321.5" r="51" stroke="#8167E7" stroke-width="3"/>
<circle cx="362.5" cy="321.5" r="43" stroke="#8167E7" stroke-width="3"/>
<circle cx="362.5" cy="321.5" r="35" stroke="#8167E7" stroke-width="3"/>
<circle cx="362.5" cy="321.5" r="27" stroke="#8167E7" stroke-width="3"/>
<circle cx="362.5" cy="321.5" r="19" stroke="#8167E7" stroke-width="3"/>
<circle cx="362.5" cy="321.5" r="11" stroke="#8167E7" stroke-width="3"/>
<circle cx="362.5" cy="321.5" r="3" stroke="#8167E7" stroke-width="3"/>
</g>
</g>
<defs>
<clipPath id="clip0_240_4621">
<rect width="480" height="926" fill="white"/>
</clipPath>
</defs>
</svg>
