<svg width="1705" height="959" viewBox="0 0 1705 959" fill="none" xmlns="http://www.w3.org/2000/svg">
<path d="M555.252 925L282.657 708.623L65 533L407.212 568.293L705.808 598.123L955.757 748.537L1277 925H978.403H555.252Z" fill="#00C9B2" fill-opacity="0.07"/>
<path d="M282.657 708.623L555.252 925H978.403M282.657 708.623L65 533L407.212 568.293M282.657 708.623L955.757 748.537M955.757 748.537L705.808 598.123L407.212 568.293M955.757 748.537L1277 925H978.403M407.212 568.293L978.403 925" stroke="#FCFCFC" stroke-width="14"/>
<path d="M594.252 897L321.657 680.623L104 505L446.212 540.293L744.808 570.123L1002.5 718L1316 897H1017.4H594.252Z" fill="#00C9B2" fill-opacity="0.07"/>
<path d="M1357 282.068V180.034V78L1454.87 112.402L1559 149.932V251.966V354L1454.87 316.47L1357 282.068Z" fill="#00C9B2" fill-opacity="0.07"/>
<path d="M1357 180.034V282.068L1454.87 316.47M1357 180.034V78L1454.87 112.402M1357 180.034L1559 251.966M1559 251.966V149.932L1454.87 112.402M1559 251.966V354L1454.87 316.47M1454.87 112.402V316.47" stroke="#FCFCFC" stroke-width="14"/>
<path d="M1330 293.068V191.034V89L1427.87 123.402L1532 160.932V262.966V365L1427.87 327.47L1330 293.068Z" fill="#00C9B2" fill-opacity="0.07"/>
</svg>
