<svg width="480" height="926" viewBox="0 0 480 926" fill="none" xmlns="http://www.w3.org/2000/svg">
<g clip-path="url(#clip0_240_4904)">
<path d="M86.283 800L-37.8692 701.195L-137 621L18.8588 637.116L154.853 650.737L268.691 719.421L415 800H279.006H86.283Z" fill="#00C9B2" fill-opacity="0.07"/>
<path d="M-37.8692 701.195L86.283 800H279.006M-37.8692 701.195L-137 621L18.8588 637.116M-37.8692 701.195L268.691 719.421M268.691 719.421L154.853 650.737L18.8588 637.116M268.691 719.421L415 800H279.006M18.8588 637.116L279.006 800" stroke="#FCFCFC" stroke-width="14"/>
<path d="M104.283 787L-19.8692 688.747L-119 609L36.8588 625.026L172.853 638.571L290.218 705.719L433 787H297.006H104.283Z" fill="#00C9B2" fill-opacity="0.07"/>
<path d="M384 240.827V173.914V107L448.438 129.561L517 154.173V221.086V288L448.438 263.388L384 240.827Z" fill="#00C9B2" fill-opacity="0.07"/>
<path d="M384 173.914V240.827L448.438 263.388M384 173.914V107L448.438 129.561M384 173.914L517 221.086M517 221.086V154.173L448.438 129.561M517 221.086V288L448.438 263.388M448.438 129.561V263.388" stroke="#FCFCFC" stroke-width="14"/>
<path d="M366 248.567V181.283V114L430.438 136.686L499 161.433V228.717V296L430.438 271.252L366 248.567Z" fill="#00C9B2" fill-opacity="0.07"/>
</g>
<defs>
<clipPath id="clip0_240_4904">
<rect width="480" height="926" fill="white"/>
</clipPath>
</defs>
</svg>
