<svg width="768" height="1133" viewBox="0 0 768 1133" fill="none" xmlns="http://www.w3.org/2000/svg">
<g clip-path="url(#clip0_240_4903)">
<path d="M137.565 972L-50.6875 822.413L-201 701L35.3294 725.399L241.538 746.021L414.152 850.006L636 972H429.791H137.565Z" fill="#00C9B2" fill-opacity="0.07"/>
<path d="M-50.6875 822.413L137.565 972H429.791M-50.6875 822.413L-201 701L35.3294 725.399M-50.6875 822.413L414.152 850.006M414.152 850.006L241.538 746.021L35.3294 725.399M414.152 850.006L636 972H429.791M35.3294 725.399L429.791 972" stroke="#FCFCFC" stroke-width="14"/>
<path d="M164.565 953L-23.6875 803.413L-174 682L62.3294 706.399L268.538 727.021L446.499 829.253L663 953H456.791H164.565Z" fill="#00C9B2" fill-opacity="0.07"/>
<path d="M539 300.068V198.034V96L636.868 130.402L741 167.932V269.966V372L636.868 334.47L539 300.068Z" fill="#00C9B2" fill-opacity="0.07"/>
<path d="M539 198.034V300.068L636.868 334.47M539 198.034V96L636.868 130.402M539 198.034L741 269.966M741 269.966V167.932L636.868 130.402M741 269.966V372L636.868 334.47M636.868 130.402V334.47" stroke="#FCFCFC" stroke-width="14"/>
<path d="M512 311.068V209.034V107L609.868 141.402L714 178.932V280.966V383L609.868 345.47L512 311.068Z" fill="#00C9B2" fill-opacity="0.07"/>
</g>
<defs>
<clipPath id="clip0_240_4903">
<rect width="768" height="1133" fill="white"/>
</clipPath>
</defs>
</svg>
